<svg xmlns="http://www.w3.org/2000/svg" width="14.4" height="11.833" viewBox="0 0 14.4 11.833">
  <path id="folder" d="M13.414,9.233H12.6V7.771a.638.638,0,0,0-.637-.637H6.187L5.02,5.5H.637A.638.638,0,0,0,0,6.137V16.331H0a.6.6,0,0,0,.6.6H11.042a.592.592,0,0,0,.572-.423L14,9.968V9.927A.625.625,0,0,0,13.414,9.233ZM.467,6.137a.171.171,0,0,1,.171-.171H4.78L5.947,7.6h6.016a.171.171,0,0,1,.171.171V9.233H2.971a.6.6,0,0,0-.571.423L.467,14.926Zm10.7,10.232a.132.132,0,0,1-.127.1H.6a.129.129,0,0,1-.1-.052.126.126,0,0,1-.029-.1L2.843,9.8a.132.132,0,0,1,.127-.1H13.414c.089,0,.111.127.117.191Z" transform="translate(0.2 -5.3)" fill="#9a9a9a" stroke="#9a9a9a" stroke-width="0.4"/>
</svg>
