<svg xmlns="http://www.w3.org/2000/svg" width="14.513" height="14.523" viewBox="0 0 14.513 14.523">
  <path id="home" d="M12.027,14h-3.1a.214.214,0,0,1-.215-.212V9.469H5.753v4.319A.214.214,0,0,1,5.537,14H2.432a.214.214,0,0,1-.215-.212V6.743H.445a.216.216,0,0,1-.2-.134A.211.211,0,0,1,.3,6.376L7.081.058a.218.218,0,0,1,.3,0l6.786,6.318a.211.211,0,0,1,.052.232.216.216,0,0,1-.2.134H12.242v7.045A.214.214,0,0,1,12.027,14Zm-2.889-.424h2.674V6.53a.214.214,0,0,1,.215-.212h1.447L7.229.5.986,6.318H2.432a.214.214,0,0,1,.215.212v7.045H5.322V9.257a.214.214,0,0,1,.215-.212H8.922a.214.214,0,0,1,.215.212Z" transform="translate(0.026 0.273)" fill="#9a9a9a" stroke="#9a9a9a" stroke-width="0.5"/>
</svg>
