<svg xmlns="http://www.w3.org/2000/svg" width="14.2" height="12.606" viewBox="0 0 14.2 12.606">
  <g id="reddit" transform="translate(0.1 -24.358)">
    <path id="Path_21" data-name="Path 21" d="M14,30.067a1.757,1.757,0,0,0-3-1.241,7.319,7.319,0,0,0-3.619-1.1,1.924,1.924,0,0,1,2.342-1.876l.079.017c0,.02,0,.039,0,.059a1.471,1.471,0,1,0,.229-.786l-.141-.031a2.683,2.683,0,0,0-3.265,2.616A7.32,7.32,0,0,0,3,28.826a1.758,1.758,0,1,0-2.06,2.8,3.469,3.469,0,0,0-.065.667c0,2.526,2.741,4.574,6.122,4.574s6.122-2.048,6.122-4.574a3.471,3.471,0,0,0-.065-.666A1.757,1.757,0,0,0,14,30.067Zm-2.736-4.85a.709.709,0,1,1-.709.709A.71.71,0,0,1,11.264,25.217ZM.759,30.067a1,1,0,0,1,1.623-.779,4.452,4.452,0,0,0-1.206,1.59A1,1,0,0,1,.759,30.067Zm10.116,4.85A6.492,6.492,0,0,1,7,36.106a6.492,6.492,0,0,1-3.875-1.189,3.062,3.062,0,0,1,0-5.253A6.492,6.492,0,0,1,7,28.475a6.492,6.492,0,0,1,3.875,1.189,3.062,3.062,0,0,1,0,5.253Zm1.949-4.04a4.453,4.453,0,0,0-1.206-1.59,1,1,0,1,1,1.206,1.59Z" fill="#9a9a9a" stroke="#9a9a9a" stroke-width="0.2"/>
    <g id="Group_10" data-name="Group 10" transform="translate(3.963 30.422)">
      <circle id="Ellipse_3" data-name="Ellipse 3" cx="0.8" cy="0.8" r="0.8" fill="#9a9a9a" stroke="#9a9a9a" stroke-width="0.2"/>
      <circle id="Ellipse_4" data-name="Ellipse 4" cx="0.8" cy="0.8" r="0.8" transform="translate(4.472)" fill="#9a9a9a" stroke="#9a9a9a" stroke-width="0.2"/>
    </g>
    <path id="Path_22" data-name="Path 22" d="M125.957,282.956a3.06,3.06,0,0,1-4.3-.176.379.379,0,1,0-.555.517,3.818,3.818,0,0,0,5.364.22.379.379,0,1,0-.511-.561Z" transform="translate(-117.06 -249.789)" fill="#9a9a9a" stroke="#9a9a9a" stroke-width="0.2"/>
  </g>
</svg>
