<svg xmlns="http://www.w3.org/2000/svg" width="14.5" height="14.5" viewBox="0 0 14.5 14.5">
  <g id="settings" transform="translate(0.25 0.25)">
    <path id="Path_19" data-name="Path 19" d="M16.63,13a3.63,3.63,0,1,0,3.63,3.63A3.634,3.634,0,0,0,16.63,13Zm0,6.741a3.111,3.111,0,1,1,3.111-3.111A3.115,3.115,0,0,1,16.63,19.741Z" transform="translate(-9.63 -9.63)" fill="#9a9a9a" stroke="#9a9a9a" stroke-width="0.5"/>
    <path id="Path_20" data-name="Path 20" d="M13.279,5.444h-.523A5.909,5.909,0,0,0,12.17,4.03l.37-.37a.721.721,0,0,0,0-1.02l-1.18-1.18a.739.739,0,0,0-1.02,0l-.37.37a5.926,5.926,0,0,0-1.414-.586V.721A.722.722,0,0,0,7.835,0H6.165a.722.722,0,0,0-.721.721v.523A5.922,5.922,0,0,0,4.03,1.83l-.37-.37a.738.738,0,0,0-1.02,0L1.46,2.641a.721.721,0,0,0,0,1.02l.37.37a5.9,5.9,0,0,0-.586,1.414H.721A.722.722,0,0,0,0,6.165V7.834a.722.722,0,0,0,.721.721h.523A5.922,5.922,0,0,0,1.83,9.97l-.37.37a.721.721,0,0,0,0,1.02l1.18,1.18a.738.738,0,0,0,1.02,0l.37-.37a5.933,5.933,0,0,0,1.415.586v.523A.722.722,0,0,0,6.165,14H7.835a.722.722,0,0,0,.721-.721v-.523A5.922,5.922,0,0,0,9.97,12.17l.37.37a.738.738,0,0,0,1.02,0l1.18-1.18a.721.721,0,0,0,0-1.02l-.37-.37a5.933,5.933,0,0,0,.586-1.415h.523A.722.722,0,0,0,14,7.835V6.165A.722.722,0,0,0,13.279,5.444Zm.2,2.39a.2.2,0,0,1-.2.2h-.931l-.047.2a5.415,5.415,0,0,1-.677,1.636l-.109.175.658.658a.2.2,0,0,1,0,.286l-1.18,1.18a.2.2,0,0,1-.286,0l-.658-.658-.175.109a5.4,5.4,0,0,1-1.636.677l-.2.047v.931a.2.2,0,0,1-.2.2H6.165a.2.2,0,0,1-.2-.2v-.931l-.2-.047a5.415,5.415,0,0,1-1.636-.677l-.175-.109-.658.658a.2.2,0,0,1-.286,0l-1.18-1.18a.2.2,0,0,1,0-.286l.658-.658-.109-.175A5.4,5.4,0,0,1,1.7,8.237l-.047-.2H.721a.2.2,0,0,1-.2-.2V6.165a.2.2,0,0,1,.2-.2h.931l.047-.2a5.409,5.409,0,0,1,.677-1.636l.109-.175-.658-.658a.2.2,0,0,1,0-.286l1.18-1.18a.2.2,0,0,1,.286,0l.658.658.175-.109A5.4,5.4,0,0,1,5.762,1.7l.2-.047V.721a.2.2,0,0,1,.2-.2H7.834a.2.2,0,0,1,.2.2v.931l.2.047a5.415,5.415,0,0,1,1.636.677l.175.109.658-.658a.2.2,0,0,1,.286,0l1.18,1.18a.2.2,0,0,1,0,.286l-.658.658.109.175A5.4,5.4,0,0,1,12.3,5.762l.047.2h.931a.2.2,0,0,1,.2.2Z" fill="#9a9a9a" stroke="#9a9a9a" stroke-width="0.5"/>
  </g>
</svg>
