<svg xmlns="http://www.w3.org/2000/svg" width="14.2" height="14.986" viewBox="0 0 14.2 14.986">
  <g id="share" transform="translate(-13.7 0.1)">
    <path id="Path_23" data-name="Path 23" d="M25.142,9.5a2.662,2.662,0,0,0-2.1,1.032l-4.08-2.269a2.642,2.642,0,0,0,.148-.872,2.584,2.584,0,0,0-.151-.875l4.077-2.266a2.638,2.638,0,1,0-.549-1.606,2.571,2.571,0,0,0,.151.875L18.561,5.784a2.641,2.641,0,1,0,.006,3.208l4.077,2.269a2.621,2.621,0,0,0-.154.881A2.655,2.655,0,1,0,25.142,9.5Zm0-8.667a1.814,1.814,0,1,1-1.822,1.814A1.82,1.82,0,0,1,25.142.832ZM16.458,9.2A1.814,1.814,0,1,1,18.281,7.39,1.82,1.82,0,0,1,16.458,9.2Zm8.684,4.75a1.814,1.814,0,1,1,1.822-1.814A1.82,1.82,0,0,1,25.142,13.954Z" transform="translate(0)" fill="#9a9a9a" stroke="#9a9a9a" stroke-width="0.2"/>
  </g>
</svg>
