<svg xmlns="http://www.w3.org/2000/svg" width="50.735" height="42.686" viewBox="0 0 50.735 42.686">
  <g id="Data" transform="translate(0.5 0.5)">
    <path id="Path_11" data-name="Path 11" d="M49.258,226.979a.47.47,0,0,0-.452.346l-9.5,23.693v.829c0,.609-.039.829.468.829h37.1a2.1,2.1,0,0,0,2.031-1.5l8.477-23.365v-.829Z" transform="translate(-37.653 -210.99)" fill="none" stroke="#039be5" stroke-miterlimit="10" stroke-width="1"/>
    <path id="Path_12" data-name="Path 12" d="M45.265,195.878H79.474v-5.2a2.267,2.267,0,0,0-2.264-2.264H56.691l-4.144-5.8H36.976a2.268,2.268,0,0,0-2.264,2.265v34.645l8.523-22.146A2.1,2.1,0,0,1,45.265,195.878Z" transform="translate(-34.712 -182.615)" fill="none" stroke="#039be5" stroke-miterlimit="10" stroke-width="1"/>
  </g>
</svg>
