<svg xmlns="http://www.w3.org/2000/svg" width="41" height="41" viewBox="0 0 41 41">
  <g id="Logo" transform="translate(-577.5 -314.495)">
    <g id="Group_4" data-name="Group 4" transform="translate(577.5 314.495)">
      <path id="Path_3" data-name="Path 3" d="M606.991,355.495H589.009A11.522,11.522,0,0,1,577.5,343.986V326a11.522,11.522,0,0,1,11.509-11.509h17.982A11.522,11.522,0,0,1,618.5,326h-5.035a6.481,6.481,0,0,0-6.474-6.474H589.009A6.481,6.481,0,0,0,582.535,326v17.982a6.481,6.481,0,0,0,6.474,6.474h17.982a6.481,6.481,0,0,0,6.474-6.474H618.5A11.522,11.522,0,0,1,606.991,355.495Z" transform="translate(-577.5 -314.495)" fill="#418ef6"/>
    </g>
    <g id="Group_5" data-name="Group 5" transform="translate(586.851 323.846)">
      <path id="Path_4" data-name="Path 4" d="M621.654,365.3h-8.991a6.661,6.661,0,0,1-6.654-6.653h4.316a2.34,2.34,0,0,0,2.338,2.338h8.991a2.34,2.34,0,0,0,2.338-2.338v-8.991a2.34,2.34,0,0,0-2.338-2.338h-8.991a2.34,2.34,0,0,0-2.338,2.338h-4.316A6.661,6.661,0,0,1,612.662,343h8.991a6.661,6.661,0,0,1,6.653,6.654v8.991A6.661,6.661,0,0,1,621.654,365.3Z" transform="translate(-606.009 -343.004)" fill="#fff"/>
    </g>
  </g>
</svg>
