<svg xmlns="http://www.w3.org/2000/svg" width="43.041" height="42.856" viewBox="0 0 43.041 42.856">
  <g id="World" transform="translate(0.523 0.542)">
    <g id="Group_6" data-name="Group 6">
      <path id="Path_5" data-name="Path 5" d="M423.749,229.1l-1.15-1.149v-2.676a.749.749,0,0,0-.075-.334l-2.911-5.813v-2.809a.746.746,0,0,0-.332-.621l-2.239-1.493a.746.746,0,0,0-.6-.1l-2.742.685-4.606-1.976-.634-4.439,1.756-1.755h3.77l1.269,1.907a.748.748,0,0,0,.5.322l4.478.746a.743.743,0,0,0,.358-.028l4.124-1.375A20.823,20.823,0,0,1,423.749,229.1Z" transform="translate(-385.28 -196.911)" fill="none" stroke="#039be5" stroke-miterlimit="10" stroke-width="1"/>
      <path id="Path_6" data-name="Path 6" d="M422.671,188.193l-1.214.809-3.383-.677-2.195-.731a.73.73,0,0,0-.417-.016l-2.775.693-1.217-.405.9-1.8H414.9a.741.741,0,0,0,.334-.078l2.582-1.291A20.973,20.973,0,0,1,422.671,188.193Z" transform="translate(-387.28 -182.332)" fill="none" stroke="#039be5" stroke-miterlimit="10" stroke-width="1"/>
      <path id="Path_7" data-name="Path 7" d="M355.417,182.615l1.791,1.194a.749.749,0,0,0,.292.115l3.617.6-.353,1.056-1.885.629a.747.747,0,0,0-.4.323l-2.144,3.572-3.443,2.066-5.075.725a.746.746,0,0,0-.642.738v2.239a.746.746,0,0,0,.219.528l1.274,1.274v1.282l-3.1-2.071-1.126-3.379A21.019,21.019,0,0,1,355.417,182.615Z" transform="translate(-342.693 -180.95)" fill="none" stroke="#039be5" stroke-miterlimit="10" stroke-width="1"/>
      <path id="Path_8" data-name="Path 8" d="M361.7,240.372l-3.374-.675-1.254-2.5v-1.754l2.781-2.781,1.029,2.059a.746.746,0,0,0,.668.413h4.8l2.022,3.37a.746.746,0,0,0,.64.362h2.075l-.522,2.617-2.826,2.826a.748.748,0,0,0-.219.528V246.7l-2.687,2.015a.747.747,0,0,0-.3.6v2.7l-.928-.307-1.311-3.278V241.1A.746.746,0,0,0,361.7,240.372Z" transform="translate(-351.096 -214.236)" fill="none" stroke="#039be5" stroke-miterlimit="10" stroke-width="1"/>
      <path id="Path_9" data-name="Path 9" d="M347.591,215.253a20.892,20.892,0,0,1-7.443-22.815l.62,1.86a.746.746,0,0,0,.293.385l3.721,2.48-.849.849a.746.746,0,0,0-.219.528v2.239a.745.745,0,0,0,.078.334l1.493,2.985a.748.748,0,0,0,.522.4l3.135.626v6.852a.747.747,0,0,0,.053.277l1.493,3.732a.747.747,0,0,0,.457.431l2.239.746a.729.729,0,0,0,.232.039.746.746,0,0,0,.746-.746v-3.359l2.687-2.015a.747.747,0,0,0,.3-.6v-1.93l2.767-2.766a.748.748,0,0,0,.2-.381l.746-3.732a.746.746,0,0,0-.585-.878.736.736,0,0,0-.146-.014h-2.563l-2.022-3.37a.745.745,0,0,0-.64-.362h-4.763l-1.282-2.573a.746.746,0,0,0-.549-.4.732.732,0,0,0-.647.209l-.968.965v-1.184a.745.745,0,0,0-.219-.527l-1.274-1.274v-1.283l4.584-.655a.745.745,0,0,0,.278-.1l3.732-2.239a.75.75,0,0,0,.255-.255l2.1-3.5,1.977-.66a.74.74,0,0,0,.472-.472l.746-2.239a.747.747,0,0,0-.474-.943.791.791,0,0,0-.111-.027l-4.32-.72-.759-.506a20.842,20.842,0,0,1,14.354.533l-1.364.681h-2.809a.746.746,0,0,0-.672.413l-1.493,2.985a.746.746,0,0,0,.335,1,.738.738,0,0,0,.1.04l2.239.746a.735.735,0,0,0,.417.016l2.775-.693,2.033.677a.549.549,0,0,0,.089.024l3.732.746a.742.742,0,0,0,.561-.111l1.7-1.133a21.048,21.048,0,0,1,2.245,3l-3.672,1.224-3.976-.663-1.314-1.97a.746.746,0,0,0-.617-.332h-4.478a.746.746,0,0,0-.528.219L361.1,188.31a.747.747,0,0,0-.211.634l.746,5.225a.746.746,0,0,0,.448.58l5.224,2.239a.739.739,0,0,0,.475.038l2.665-.666,1.63,1.088v2.586a.746.746,0,0,0,.074.334l2.911,5.814v2.809a.746.746,0,0,0,.219.528l1.562,1.562A20.893,20.893,0,0,1,347.591,215.253Z" transform="translate(-339.235 -177.643)" fill="none" stroke="#039be5" stroke-miterlimit="10" stroke-width="1"/>
    </g>
  </g>
</svg>
